# xmcd CD database file
#
# Track frame offsets:
#	150
#	18012
#	38367
#	53101
#	72821
#	102512
#	120742
#	149177
#	178904
#	202351
#	226870
#	246036
#	262956
#	280023
#	294074
#	310369
#
# Disc length: 4380 seconds
#
# Revision: 1
# Processed by: cddbd v1.5.1PL0 Copyright (c) Steve Scherf et al.
# Submitted via: CDex 1.51
#
DISCID=e6111a10
DTITLE=Various Artist - Amercian Country - Disc 2
DYEAR=1900
DGENRE=Country
TTITLE0=Yesterday Once More
TTITLE1=Casabance
TTITLE2=Because I Love You
TTITLE3=Right Here Waiting
TTITLE4=I Don't For You
TTITLE5=Say You Say Me
TTITLE6=I Just Call To Say I Love You
TTITLE7=Careiess Whisper
TTITLE8=Hotel California
TTITLE9=Another Day In Paradise
TTITLE10=Hero
TTITLE11=I Will Always Love You
TTITLE12=When A Man Love A Woman
TTITLE13=Scarborough Fair
TTITLE14=Unchained Melody
TTITLE15=All Out Of Love
EXTD=
EXTT0=
EXTT1=
EXTT2=
EXTT3=
EXTT4=
EXTT5=
EXTT6=
EXTT7=
EXTT8=
EXTT9=
EXTT10=
EXTT11=
EXTT12=
EXTT13=
EXTT14=
EXTT15=
PLAYORDER=
